<svg width="21" height="20" viewBox="0 0 21 20" fill="none" xmlns="http://www.w3.org/2000/svg">
<path d="M9.36458 0.690146C9.66442 -0.23013 10.9663 -0.23013 11.2662 0.690147L13.0173 6.06454C13.1514 6.47617 13.5352 6.75475 13.9681 6.75475H19.6288C20.5982 6.75475 21.0006 7.99578 20.2156 8.56454L15.6407 11.8792C15.2892 12.1338 15.1421 12.5861 15.2766 12.9988L17.0252 18.3654C17.3252 19.2862 16.2719 20.0532 15.4876 19.485L10.9021 16.1626C10.5521 15.909 10.0787 15.909 9.72866 16.1626L5.14312 19.485C4.35886 20.0532 3.30557 19.2862 3.60559 18.3654L5.35416 12.9988C5.48862 12.5861 5.34154 12.1338 4.99008 11.8792L0.415206 8.56454C-0.369801 7.99578 0.0325302 6.75475 1.00192 6.75475H6.66268C7.09561 6.75475 7.47937 6.47617 7.61348 6.06454L9.36458 0.690146Z" fill="#E5E5E5"/>
</svg>
